<mxfile host="app.diagrams.net">
  <diagram name="BMC Network Architecture" id="diagram">
    <mxGraphModel dx="1800" dy="1000" grid="1" gridSize="10">
      <root>
        <mxCell id="0"/>
        <mxCell id="1" parent="0"/>
        
        <!-- Title -->
        <mxCell id="title" value="BMC Network Architecture" style="rounded=0;whiteSpace=wrap;html=1;fillColor=#232F3E;strokeColor=none;fontColor=#FFFFFF;fontSize=18;fontStyle=1;align=center;" vertex="1" parent="1">
          <mxGeometry x="50" y="20" width="1500" height="50" as="geometry"/>
        </mxCell>
        
        <!-- Note -->
        <mxCell id="note" value="This Draw.io file corresponds to: bmc_network_architecture.png&#10;&#10;Edit this diagram at: https://app.diagrams.net&#10;&#10;Generated automatically from PNG file." style="rounded=1;whiteSpace=wrap;html=1;fillColor=#E1F5FE;strokeColor=#0277BD;fontSize=12;align=left;verticalAlign=top;" vertex="1" parent="1">
          <mxGeometry x="50" y="100" width="400" height="120" as="geometry"/>
        </mxCell>
        
        <!-- AWS Cloud Placeholder -->
        <mxCell id="aws" value="AWS Cloud Architecture&#10;&#10;Components from bmc_network_architecture.png:&#10;• Microservices&#10;• Databases&#10;• Security Layers&#10;• Network Topology" style="rounded=1;whiteSpace=wrap;html=1;fillColor=#E3F2FD;strokeColor=#1976D2;strokeWidth=3;fontSize=14;fontStyle=1;verticalAlign=top;spacingTop=20;" vertex="1" parent="1">
          <mxGeometry x="500" y="100" width="800" height="400" as="geometry"/>
        </mxCell>
        
        <!-- Placeholder Services -->
        <mxCell id="service1" value="Service 1" style="sketch=0;outlineConnect=0;fontColor=#232F3E;gradientColor=#F78E04;gradientDirection=north;fillColor=#D05C17;strokeColor=#ffffff;shape=mxgraph.aws4.fargate;" vertex="1" parent="1">
          <mxGeometry x="600" y="200" width="35" height="35" as="geometry"/>
        </mxCell>
        
        <mxCell id="service2" value="Service 2" style="sketch=0;outlineConnect=0;fontColor=#232F3E;gradientColor=#4AB29A;gradientDirection=north;fillColor=#116D5B;strokeColor=#ffffff;shape=mxgraph.aws4.rds;" vertex="1" parent="1">
          <mxGeometry x="800" y="200" width="35" height="35" as="geometry"/>
        </mxCell>
        
        <mxCell id="service3" value="Service 3" style="sketch=0;outlineConnect=0;fontColor=#232F3E;gradientColor=#60A337;gradientDirection=north;fillColor=#277116;strokeColor=#ffffff;shape=mxgraph.aws4.s3;" vertex="1" parent="1">
          <mxGeometry x="1000" y="200" width="35" height="35" as="geometry"/>
        </mxCell>
        
        <!-- Connection -->
        <mxCell id="c1" style="endArrow=classic;html=1;strokeColor=#4CAF50;strokeWidth=2;" edge="1" parent="1" source="service1" target="service2"/>
        <mxCell id="c2" style="endArrow=classic;html=1;strokeColor=#4CAF50;strokeWidth=2;" edge="1" parent="1" source="service2" target="service3"/>
        
        <!-- Instructions -->
        <mxCell id="instructions" value="Instructions:&#10;1. Open this file in https://app.diagrams.net&#10;2. Replace placeholder components with actual AWS services&#10;3. Add detailed configuration and connections&#10;4. Use official AWS icons from the library&#10;5. Save and export as needed" style="rounded=1;whiteSpace=wrap;html=1;fillColor=#FFF8E1;strokeColor=#FFC107;fontSize=11;align=left;verticalAlign=top;" vertex="1" parent="1">
          <mxGeometry x="50" y="300" width="400" height="150" as="geometry"/>
        </mxCell>
        
      </root>
    </mxGraphModel>
  </diagram>
</mxfile>